# xmcd
#
# Track frame offsets: 
#        150
#        10864
#        25410
#        40562
#        56194
#        68189
#        79140
#        100956
#        117348
#        129445
#
# Disc length: 1931 seconds
#
# Revision: 0
# Processed by: cddbd v1.5.2PL0 Copyright (c) Steve Scherf et al.
# Submitted via: ExactAudioCopyFreeDBPlugin 1.0
#
DISCID=8007890a
DTITLE=Niko Laven - You're Gonna Answer
DYEAR=2015
DGENRE=Country
TTITLE0=Cain and Abel
TTITLE1=KC 135
TTITLE2=Andy and Marie
TTITLE3=Shame On You
TTITLE4=Wings On My Back
TTITLE5=Slow and Easy
TTITLE6=Sometimes
TTITLE7=CB
TTITLE8=London
TTITLE9=Truck Song
EXTD=
EXTT0=
EXTT1=
EXTT2=
EXTT3=
EXTT4=
EXTT5=
EXTT6=
EXTT7=
EXTT8=
EXTT9=
PLAYORDER=
